<svg width="352" height="122" preserveAspectRatio="xMaxYMax" xmlns="http://www.w3.org/2000/svg">
    <g id="pdp" fill="none" stroke="#f6f5f5" stroke-width="4" stroke-linejoin="miter">
        <circle cx="35" cy="61" r="20"/>
        <path d="M15 36 v-7 h-12 v90 h12 v-32 a32 32 0 1 0 0 -51 Z"/>
        <circle cx="99" cy="61" r="20"/>
        <path d="M119 36 v-32 h12 v90 h-12 v-7 a32 32 0 1 1 0 -51 Z"/>
        <circle cx="163" cy="61" r="20"/>
        <path d="M143 36 v-7 h-12 v90 h12 v-32 a32 32 0 1 0 0 -51 Z"/>
    </g>
    <g id="1" fill="#f6f5f5">
        <path d="M196 27 h16 v68 h-16 v-52 h-7 l-6 -6 h3 a16 16 0 0 0 10 -10 Z"/>
    </g>
    <g id="0" fill="none" stroke="#f6f5f5" stroke-width="14">
        <circle cx="244" cy="61" r="26"/>
    </g>
</svg>